<svg width="56" height="56" viewBox="0 0 56 56" fill="none" xmlns="http://www.w3.org/2000/svg">
<path d="M56 28.0547C56 43.4885 43.4885 56 28.0547 56C12.6209 56 0.109375 43.4885 0.109375 28.0547C0.109375 12.6209 12.6209 0.109375 28.0547 0.109375C43.4885 0.109375 56 12.6209 56 28.0547Z" fill="#E7EFFA" fill-opacity="0.3"/>
<path fill-rule="evenodd" clip-rule="evenodd" d="M28.0547 54.5416C42.683 54.5416 54.5416 42.683 54.5416 28.0547C54.5416 13.4264 42.683 1.5678 28.0547 1.5678C13.4264 1.5678 1.5678 13.4264 1.5678 28.0547C1.5678 42.683 13.4264 54.5416 28.0547 54.5416ZM28.0547 56C43.4885 56 56 43.4885 56 28.0547C56 12.6209 43.4885 0.109375 28.0547 0.109375C12.6209 0.109375 0.109375 12.6209 0.109375 28.0547C0.109375 43.4885 12.6209 56 28.0547 56Z" fill="#F8A710"/>
<path fill-rule="evenodd" clip-rule="evenodd" d="M9.97335 44.4618C9.86402 44.4104 9.81709 44.28 9.86852 44.1707L25.1199 11.7498C25.1713 11.6405 25.3017 11.5936 25.411 11.645C25.5203 11.6964 25.5672 11.8268 25.5158 11.9361L10.2644 44.357C10.213 44.4663 10.0827 44.5132 9.97335 44.4618Z" fill="#45505B"/>
<path fill-rule="evenodd" clip-rule="evenodd" d="M25.2732 44.4519C25.1574 44.4177 25.0912 44.2961 25.1254 44.1802L34.6948 11.7739C34.7291 11.658 34.8507 11.5918 34.9666 11.626C35.0825 11.6603 35.1487 11.7819 35.1145 11.8978L25.545 44.3041C25.5108 44.42 25.3891 44.4862 25.2732 44.4519Z" fill="#45505B"/>
<path fill-rule="evenodd" clip-rule="evenodd" d="M34.871 44.4793C34.7548 44.4463 34.6874 44.3253 34.7205 44.209L43.949 11.7808C43.982 11.6646 44.1031 11.5972 44.2193 11.6303C44.3355 11.6633 44.4029 11.7843 44.3698 11.9006L35.1413 44.3288C35.1082 44.445 34.9872 44.5124 34.871 44.4793Z" fill="#45505B"/>
<path fill-rule="evenodd" clip-rule="evenodd" d="M25.3269 11.623C25.4478 11.623 25.5457 11.721 25.5457 11.8418L25.5457 44.2723C25.5457 44.3932 25.4478 44.4911 25.3269 44.4911C25.2061 44.4911 25.1082 44.3932 25.1082 44.2723L25.1082 11.8418C25.1082 11.721 25.2061 11.623 25.3269 11.623Z" fill="#45505B"/>
<path fill-rule="evenodd" clip-rule="evenodd" d="M34.9178 11.6094C35.0386 11.6094 35.1365 11.7073 35.1365 11.8281L35.1364 44.2826C35.1364 44.4034 35.0384 44.5014 34.9176 44.5014C34.7968 44.5014 34.6989 44.4034 34.6989 44.2826L34.699 11.8281C34.699 11.7073 34.797 11.6094 34.9178 11.6094Z" fill="#45505B"/>
<path fill-rule="evenodd" clip-rule="evenodd" d="M44.1594 11.6219C44.2802 11.6219 44.3781 11.7199 44.3781 11.8407V44.2723C44.3781 44.3932 44.2802 44.4911 44.1594 44.4911C44.0386 44.4911 43.9406 44.3932 43.9406 44.2723V11.8407C43.9406 11.7199 44.0386 11.6219 44.1594 11.6219Z" fill="#45505B"/>
<path fill-rule="evenodd" clip-rule="evenodd" d="M43.9649 44.3725L43.963 44.3689C43.9616 44.3662 43.9593 44.3618 43.9562 44.356C43.95 44.3443 43.9404 44.3264 43.9275 44.3028C43.9017 44.2555 43.8623 44.1849 43.8091 44.0931C43.7026 43.9096 43.5405 43.6417 43.3198 43.3067C42.8783 42.6367 42.2023 41.699 41.267 40.6334C39.3962 38.5019 36.4896 35.8603 32.3481 33.8224C28.202 31.7822 22.6645 30.3657 18.1513 29.459C15.8971 29.0062 13.903 28.6813 12.4726 28.4697C11.7575 28.3639 11.1834 28.2865 10.7883 28.2355C10.5908 28.21 10.438 28.1911 10.3347 28.1786C10.3091 28.1755 10.2865 28.1728 10.267 28.1705C10.2473 28.1682 10.2308 28.1662 10.2176 28.1647L10.1879 28.1612L10.1783 28.1601C10.1783 28.1601 10.1782 28.1601 10.2029 27.9427C10.2276 27.7254 10.2278 27.7254 10.2278 27.7254L10.238 27.7266L10.2685 27.7301C10.2953 27.7333 10.3351 27.738 10.3873 27.7443C10.4916 27.7569 10.6456 27.7759 10.8443 27.8016C11.2418 27.8529 11.8186 27.9307 12.5367 28.0369C13.9727 28.2493 15.9744 28.5754 18.2375 29.0301C22.759 29.9385 28.3424 31.3637 32.5413 33.4298C36.7448 35.4982 39.6956 38.1797 41.5958 40.3448C42.5461 41.4274 43.2341 42.3814 43.6852 43.0659C43.9107 43.4083 44.0771 43.6833 44.1875 43.8735C44.2427 43.9686 44.2839 44.0425 44.3115 44.093C44.3253 44.1183 44.3357 44.1377 44.3427 44.1509C44.3462 44.1576 44.3489 44.1627 44.3508 44.1662L44.3529 44.1704L44.3535 44.1716L44.3537 44.1719C44.3537 44.1719 44.3539 44.1721 44.1594 44.2723L44.3539 44.1721C44.4092 44.2795 44.367 44.4115 44.2596 44.4668C44.1522 44.5221 44.0203 44.4799 43.9649 44.3725ZM10.2029 27.9427L10.2276 27.7254C10.1075 27.7118 9.99915 27.798 9.98552 27.9181C9.9719 28.0381 10.0583 28.1465 10.1783 28.1601L10.2029 27.9427Z" fill="#45505B"/>
<path fill-rule="evenodd" clip-rule="evenodd" d="M9.989 27.9414C9.989 27.8206 10.0869 27.7227 10.2078 27.7227H27.5043C27.6251 27.7227 27.7231 27.8206 27.7231 27.9414C27.7231 28.0622 27.6251 28.1602 27.5043 28.1602H10.2078C10.0869 28.1602 9.989 28.0622 9.989 27.9414Z" fill="#45505B"/>
</svg>
