<svg width="48" height="46" viewBox="0 0 48 46" fill="none" xmlns="http://www.w3.org/2000/svg">
<path fill-rule="evenodd" clip-rule="evenodd" d="M0.551526 45.8827C0.0717838 45.657 -0.134147 45.0851 0.0915672 44.6054L20.5088 1.20977C20.7345 0.730026 21.3064 0.524095 21.7861 0.749809C22.2659 0.975523 22.4718 1.54741 22.2461 2.02715L1.82887 45.4228C1.60315 45.9025 1.03127 46.1084 0.551526 45.8827Z" fill="#45505B"/>
<path fill-rule="evenodd" clip-rule="evenodd" d="M0.000226924 23.3168C0.000226924 22.7866 0.430029 22.3568 0.960217 22.3568H23.969C24.4991 22.3568 24.9289 22.7866 24.9289 23.3168C24.9289 23.847 24.4991 24.2768 23.969 24.2768H0.960217C0.430029 24.2768 0.000226924 23.847 0.000226924 23.3168Z" fill="#45505B"/>
<path fill-rule="evenodd" clip-rule="evenodd" d="M21.1106 45.9469C20.6022 45.7967 20.3117 45.2628 20.462 44.7543L33.288 1.33671C33.4382 0.828241 33.9722 0.537814 34.4806 0.68802C34.9891 0.838227 35.2795 1.37219 35.1293 1.88065L22.3033 45.2983C22.1531 45.8067 21.6191 46.0971 21.1106 45.9469Z" fill="#45505B"/>
<path fill-rule="evenodd" clip-rule="evenodd" d="M34.2138 45.9985C33.6836 45.9985 33.2538 45.5688 33.2537 45.0386L33.2484 1.60897C33.2483 1.07878 33.6781 0.648924 34.2082 0.648859C34.7384 0.648794 35.1683 1.07854 35.1684 1.60873L35.1737 45.0384C35.1738 45.5685 34.744 45.9984 34.2138 45.9985Z" fill="#45505B"/>
<path fill-rule="evenodd" clip-rule="evenodd" d="M47.0396 45.9985C46.5094 45.9985 46.0795 45.5688 46.0795 45.0386L46.0741 1.60897C46.0741 1.07878 46.5038 0.648924 47.034 0.648859C47.5642 0.648794 47.994 1.07854 47.9941 1.60873L47.9994 45.0384C47.9995 45.5685 47.5698 45.9984 47.0396 45.9985Z" fill="#45505B"/>
<path fill-rule="evenodd" clip-rule="evenodd" d="M21.3774 45.9985C20.8472 45.9985 20.4173 45.5688 20.4173 45.0386L20.4119 1.60897C20.4119 1.07878 20.8416 0.648924 21.3718 0.648859C21.902 0.648794 22.3319 1.07854 22.3319 1.60873L22.3373 45.0384C22.3373 45.5685 21.9076 45.9984 21.3774 45.9985Z" fill="#45505B"/>
<path fill-rule="evenodd" clip-rule="evenodd" d="M33.9417 45.9591C33.4333 45.8089 33.1428 45.275 33.293 44.7665L46.1191 1.3489C46.2693 0.840439 46.8033 0.550012 47.3117 0.700219C47.8202 0.850425 48.1106 1.38439 47.9604 1.89285L35.1344 45.3104C34.9842 45.8189 34.4502 46.1093 33.9417 45.9591Z" fill="#45505B"/>
</svg>
