<svg width="64" height="64" viewBox="0 0 64 64" fill="none" xmlns="http://www.w3.org/2000/svg">
<path d="M64 32C64 49.6731 49.6731 64 32 64C14.3269 64 0 49.6731 0 32C0 14.3269 14.3269 0 32 0C49.6731 0 64 14.3269 64 32Z" fill="#EEF6FD"/>
<path fill-rule="evenodd" clip-rule="evenodd" d="M32 62.9047C49.0682 62.9047 62.9047 49.0682 62.9047 32C62.9047 14.9318 49.0682 1.09526 32 1.09526C14.9318 1.09526 1.09526 14.9318 1.09526 32C1.09526 49.0682 14.9318 62.9047 32 62.9047ZM32 64C49.6731 64 64 49.6731 64 32C64 14.3269 49.6731 0 32 0C14.3269 0 0 14.3269 0 32C0 49.6731 14.3269 64 32 64Z" fill="#45505B"/>
<path fill-rule="evenodd" clip-rule="evenodd" d="M11.3783 49.8273C11.2531 49.7713 11.1994 49.6296 11.2583 49.5107L28.7265 14.254C28.7854 14.1352 28.9347 14.0841 29.0598 14.1401C29.185 14.196 29.2388 14.3377 29.1799 14.4566L11.7116 49.7133C11.6527 49.8322 11.5035 49.8832 11.3783 49.8273Z" fill="#45505B"/>
<path fill-rule="evenodd" clip-rule="evenodd" d="M11.2344 31.9841C11.2344 31.8527 11.3466 31.7462 11.4849 31.7462H31.1704C31.3088 31.7462 31.4209 31.8527 31.4209 31.9841C31.4209 32.1155 31.3088 32.222 31.1704 32.222H11.4849C11.3466 32.222 11.2344 32.1155 11.2344 31.9841Z" fill="#45505B"/>
<path fill-rule="evenodd" clip-rule="evenodd" d="M28.8973 49.8482C28.7646 49.811 28.6888 49.6788 28.7279 49.5528L39.6779 14.2806C39.717 14.1546 39.8563 14.0826 39.989 14.1197C40.1217 14.1569 40.1976 14.2891 40.1585 14.4151L29.2085 49.6873C29.1693 49.8133 29.0301 49.8853 28.8973 49.8482Z" fill="#45505B"/>
<path fill-rule="evenodd" clip-rule="evenodd" d="M39.9355 49.8697C39.7972 49.8697 39.685 49.7632 39.685 49.6319L39.6804 14.3475C39.6804 14.2162 39.7925 14.1096 39.9309 14.1096C40.0692 14.1096 40.1814 14.2161 40.1814 14.3475L40.186 49.6318C40.186 49.7632 40.0739 49.8697 39.9355 49.8697Z" fill="#45505B"/>
<path fill-rule="evenodd" clip-rule="evenodd" d="M50.9147 49.8695C50.7764 49.8695 50.6642 49.763 50.6642 49.6316L50.6596 14.3473C50.6596 14.2159 50.7717 14.1094 50.9101 14.1094C51.0484 14.1094 51.1606 14.2158 51.1606 14.3472L51.1652 49.6316C51.1652 49.7629 51.0531 49.8694 50.9147 49.8695Z" fill="#45505B"/>
<path fill-rule="evenodd" clip-rule="evenodd" d="M28.9617 49.8695C28.8234 49.8695 28.7112 49.763 28.7112 49.6316L28.7066 14.3473C28.7066 14.2159 28.8187 14.1094 28.9571 14.1094C29.0954 14.1094 29.2076 14.2158 29.2076 14.3472L29.2122 49.6316C29.2122 49.7629 29.1001 49.8694 28.9617 49.8695Z" fill="#45505B"/>
<path fill-rule="evenodd" clip-rule="evenodd" d="M39.8645 49.86C39.7318 49.8228 39.656 49.6904 39.6952 49.5644L50.6688 14.2899C50.708 14.1639 50.8473 14.0919 50.98 14.1291C51.1127 14.1664 51.1884 14.2987 51.1493 14.4247L40.1757 49.6992C40.1365 49.8252 39.9972 49.8972 39.8645 49.86Z" fill="#45505B"/>
<path fill-rule="evenodd" clip-rule="evenodd" d="M28.7503 14.1737C28.8312 13.9979 29.016 13.875 29.2309 13.875C29.5205 13.875 29.7553 14.0979 29.7553 14.3728L29.7575 31.5119H31.4443C31.7339 31.5119 31.9686 31.7348 31.9686 32.0097C31.9686 32.2847 31.7339 32.5076 31.4443 32.5076H29.7577L29.7594 46.2183L39.6892 14.2327C39.756 14.0173 39.9627 13.8773 40.1875 13.8755C40.1932 13.8753 40.199 13.8753 40.2047 13.8753C40.4943 13.8752 40.7291 14.0981 40.7291 14.3731L40.7332 46.216L50.6699 14.2744C50.7181 14.0466 50.9299 13.875 51.1839 13.875C51.4735 13.875 51.7083 14.0979 51.7083 14.3728L51.7129 49.6572C51.7129 49.9321 51.4782 50.1551 51.1886 50.1551C50.899 50.1552 50.6643 49.9323 50.6642 49.6573L50.6601 17.8208L40.7155 49.7879C40.7052 49.8239 40.6908 49.8584 40.6727 49.8907C40.6353 49.9579 40.5829 50.0146 40.5207 50.0581C40.4612 50.0999 40.3919 50.1301 40.3168 50.1449C40.2594 50.1564 40.1994 50.1588 40.1391 50.151C40.1333 50.1502 40.1274 50.1493 40.1216 50.1484C40.0655 50.1394 40.0124 50.122 39.9638 50.0975C39.8949 50.0629 39.8365 50.0149 39.7912 49.958C39.7452 49.9003 39.7121 49.8328 39.696 49.7595C39.6879 49.7227 39.6841 49.6847 39.685 49.6463L39.6809 17.7809L29.745 49.7865C29.734 49.8219 29.7192 49.8552 29.7012 49.8862C29.614 50.046 29.4382 50.1551 29.2356 50.1551C28.946 50.1552 28.7113 49.9323 28.7112 49.6573L28.709 32.5076H20.8255L12.2333 49.8496C12.11 50.0984 11.7976 50.2052 11.5356 50.0882C11.2736 49.9711 11.1611 49.6745 11.2844 49.4257L19.6666 32.5076H11.7588C11.4692 32.5076 11.2345 32.2847 11.2345 32.0097C11.2345 31.7348 11.4692 31.5119 11.7588 31.5119H20.16L28.7503 14.1737ZM28.707 16.6003L21.3189 31.5119H28.7089L28.707 16.6003Z" fill="#45505B"/>
</svg>
